<svg xmlns="http://www.w3.org/2000/svg" version="1.1" xmlns:xlink="http://www.w3.org/1999/xlink" width="1000" height="1000"><style>
    #light-icon {
      display: inline;
    }
    #dark-icon {
      display: none;
    }

    @media (prefers-color-scheme: dark) {
      #light-icon {
        display: none;
      }
      #dark-icon {
        display: inline;
      }
    }
  </style><g id="light-icon"><svg xmlns="http://www.w3.org/2000/svg" version="1.1" xmlns:xlink="http://www.w3.org/1999/xlink" width="1000" height="1000"><g clip-path="url(#SvgjsClipPath1324)"><rect width="1000" height="1000" fill="#ffffff"></rect><g transform="matrix(18.75,0,0,18.75,50,50)"><svg xmlns="http://www.w3.org/2000/svg" version="1.1" xmlns:xlink="http://www.w3.org/1999/xlink" width="48" height="48"><svg id="Layer_1" data-name="Layer 1" xmlns="http://www.w3.org/2000/svg" viewBox="0 0 48 48">
  <path d="M40.5,10.24c0,.22-.12.54-.26.72-.53.67-1.56,1.66-2.19,2.33-1.87,1.96-4.37,4-6.04,6.02-1.22,1.48.82,3.28,2.13,1.98,2.71-2.67,5.12-5.74,7.87-8.41,1.37-.94,3.1.71,2.11,2.11-.95,1.35-2.61,2.79-3.76,4.04-2.05,2.23-4.61,5.83-7.52,6.73-1.42.44-2.12.23-3.49.18-2.66-.1-3.39.84-5.06,2.74-3.89,4.42-7.58,9.04-11.43,13.49-4.27,3.92-9.99-1.7-6.17-6.04,4.69-4.2,9.89-8.07,14.52-12.32,3.21-2.94.97-4.75,2.21-8.08.9-2.41,2.97-3.79,4.77-5.47,1.69-1.58,3.33-3.26,5.07-4.8.24-.21.72-.63.96-.79,1.01-.67,2.55.49,2.24,1.68-.22.84-1.25,1.42-1.83,1.98-2.09,2.03-4.23,3.98-6.3,6.04-.37.37-.6.33-.85.95-.54,1.33,1.02,2.56,2.15,1.7.74-.56,1.87-1.75,2.6-2.45,1.6-1.53,3.1-3.25,4.72-4.73.3-.28.94-.86,1.23-1.06.96-.64,2.31.37,2.32,1.44Z"></path>
</svg></svg></g></g><defs><clipPath id="SvgjsClipPath1324"><rect width="1000" height="1000" x="0" y="0" rx="150" ry="150"></rect></clipPath></defs></svg></g><g id="dark-icon"><svg xmlns="http://www.w3.org/2000/svg" version="1.1" xmlns:xlink="http://www.w3.org/1999/xlink" width="1000" height="1000"><g clip-path="url(#SvgjsClipPath1325)"><rect width="1000" height="1000" fill="#ffffff"></rect><g transform="matrix(18.75,0,0,18.75,50,50)"><svg xmlns="http://www.w3.org/2000/svg" version="1.1" xmlns:xlink="http://www.w3.org/1999/xlink" width="48" height="48"><svg id="Layer_1" data-name="Layer 1" xmlns="http://www.w3.org/2000/svg" viewBox="0 0 48 48">
  <path d="M40.5,10.24c0,.22-.12.54-.26.72-.53.67-1.56,1.66-2.19,2.33-1.87,1.96-4.37,4-6.04,6.02-1.22,1.48.82,3.28,2.13,1.98,2.71-2.67,5.12-5.74,7.87-8.41,1.37-.94,3.1.71,2.11,2.11-.95,1.35-2.61,2.79-3.76,4.04-2.05,2.23-4.61,5.83-7.52,6.73-1.42.44-2.12.23-3.49.18-2.66-.1-3.39.84-5.06,2.74-3.89,4.42-7.58,9.04-11.43,13.49-4.27,3.92-9.99-1.7-6.17-6.04,4.69-4.2,9.89-8.07,14.52-12.32,3.21-2.94.97-4.75,2.21-8.08.9-2.41,2.97-3.79,4.77-5.47,1.69-1.58,3.33-3.26,5.07-4.8.24-.21.72-.63.96-.79,1.01-.67,2.55.49,2.24,1.68-.22.84-1.25,1.42-1.83,1.98-2.09,2.03-4.23,3.98-6.3,6.04-.37.37-.6.33-.85.95-.54,1.33,1.02,2.56,2.15,1.7.74-.56,1.87-1.75,2.6-2.45,1.6-1.53,3.1-3.25,4.72-4.73.3-.28.94-.86,1.23-1.06.96-.64,2.31.37,2.32,1.44Z"></path>
</svg></svg></g></g><defs><clipPath id="SvgjsClipPath1325"><rect width="1000" height="1000" x="0" y="0" rx="150" ry="150"></rect></clipPath></defs></svg></g></svg>