<?xml version="1.0" encoding="UTF-8"?>
<svg id="Layer_1" data-name="Layer 1" xmlns="http://www.w3.org/2000/svg" viewBox="0 0 350 75">
  <defs>
    <style>
      .cls-1 {
        fill: none;
      }

      .cls-2 {
        fill: #999;
      }
    </style>
  </defs>
  <path class="cls-2" d="M204.41,31.14c5.41-.75,7.29-7.11,10.63-11.05,1.47-1.74,2.93-2.99,4.44-3.88,5.52-3.26,10.89-1.99,12.47-1.96,7.43.13,37.8,2.33,81.05,3.27,1.48-.13,2.55,1.49,2.44,2.89-.1,1.24-1.14,2.42-2.43,2.26-16.64.26-33.41.41-50.3.43-6.84,0-13.65,0-20.45-.04-1.42,0-2.5,1.48-2.51,3-.01,1.69,1.31,3.33,2.89,3.01,23.55.21,47.11.41,70.66.62,1.05-.05,1.92,1.03,1.98,2.33.07,1.4-.82,2.66-1.94,2.65-23.62.2-47.23.41-70.85.61-1.46-.25-2.64,1.15-2.71,2.54-.07,1.48,1.12,3.13,2.69,2.91,12.17.1,24.34.21,36.51.31,11.58.16,23.15.32,34.73.48.98-.02,1.79,1.07,1.77,2.35-.02,1.23-.8,2.26-1.75,2.25l-71.1.43c-3.73.48-3.79,5.85.38,6.42,23.37,0,46.73,0,70.1,0,1.38-.21,2.47,1.24,2.44,2.65-.03,1.42-1.19,2.79-2.56,2.46-7.83.08-14.06.27-17.8.4-41.91,1.46-62.84,2.55-64.29,2.56-5.52.05-8.35,1.27-13.37-2.8-4.19-3.38-5.89-9.62-10.11-12.47-.97-.65-2.06-.94-3.14-.93-49.39.64-98.71,4.44-148.06,5.17-5.84.18-17.78,1.48-22.64-1.41-2.87-1.71-4.56-4.38-5.25-7.32-.19-.83-.68-3.06-.2-5.63.43-2.3,1.51-4.31,3.01-5.82,1.71-1.73,3.86-2.5,6.01-2.45l167.26,3.76Z"/>
  <g>
    <rect class="cls-1" width="350" height="75"/>
    <path d="M58.34,26.46c-.82-.58-2.06-.91-2.4-.91h-5.52v8.88h5.18c.19,0,.38-.1.58-.19.19-.05.38-.14.58-.24v8.5c-.14-.72-.43-1.06-.91-1.58-.72-.82-1.63-1.06-2.45-1.06h-2.98v10.8c0,1.58.29,2.59,1.15,3.89.48.77.82,1.15,1.54,1.68l-15.36.05c.43-.24.72-.43,1.1-.77,1.1-1.06,1.34-2.21,1.34-3.75v-27.51c0-.19-.19-2.06-.72-2.74-.53-.72-.96-1.15-1.78-1.63h20.59c.34,0,.53.05.86-.05.14-.05.29-.1.53-.24v8.5c-.38-.67-.72-1.15-1.34-1.63Z"/>
    <path d="M82.58,57.23c-11.86,0-19.39-8.69-19.39-18.72,0-10.7,8.4-19.06,20.55-19.06s20.21,7.2,20.21,18.1c0,12.39-8.88,19.68-21.36,19.68ZM82.96,24.87c-6.14,0-9.22,5.47-9.22,11.95,0,7.34,3.74,14.93,9.98,14.93,6.82,0,9.41-5.66,9.41-11.71,0-7.39-2.93-15.17-10.18-15.17Z"/>
    <path d="M137.2,56.17c-1.78,0-5.28.96-7.63-.24-1.78-.91-2.93-3.36-3.22-3.94l-5.95-11.18v9.36c0,1.58-.1,2.74.58,4.08.43.96.96,1.44,1.82,2.02h-15.17c.38-.29.67-.43,1.01-.77,1.2-1.1,1.63-2.3,1.63-3.94l-.05-27.65c0-.14-.53-2.26-1.06-2.98-.38-.48-.67-.72-1.2-1.06h17.62c7.87,0,10.9,5.04,10.85,10.18-.14,5.76-5.95,8.16-6.19,8.26l-.43.19.91,1.49c3.65,5.86,4.61,8.21,7.1,11.91,1.25,1.78,2.26,2.83,3.84,4.32l-4.46-.05ZM121.89,25.54h-1.49v12.34c2.35-.19,5.71-2.59,5.86-6.43.1-3.26-1.39-5.9-4.37-5.9Z"/>
    <path d="M176.23,55.93l-5.62.96c-14.35,2.35-25.73-5.47-25.63-18.77.1-11.23,8.78-19.2,22.66-18.15l6.24.48.24,7.63c-1.34-1.2-4.94-2.93-8.69-2.83-9.07.24-9.6,7.73-9.65,13.06-.05,6.72,3.26,13.25,11.42,13.15,3.12-.05,4.99-.48,7.83-1.73l3.89-1.63-2.69,7.82Z"/>
    <path d="M216.64,21.9c-.53.72-.77,2.21-.77,2.4v26.07c0,1.58-.19,2.74.67,4.13.48.82.96,1.25,1.78,1.73h-15.31c.48-.29.77-.48,1.15-.86,1.1-1.1,1.44-2.26,1.44-3.79v-11.71h-9.89v10.71c0,1.58-.14,2.74.72,4.13.48.77.91,1.06,1.73,1.54h-15.31c.48-.24.82-.29,1.15-.67,1.1-1.06,1.39-2.26,1.39-3.79v-27.65c0-.19-.14-1.68-.67-2.4-.58-.77-1.01-1.39-1.87-1.82h15.31c-.77.48-1.15,1.1-1.68,1.87-.53.67-.77,2.16-.77,2.35v10.32h9.89v-10.37c0-.86-.1-1.54-.62-2.26-.58-.77-.91-1.44-1.73-1.92h15.17c-.86.53-1.2,1.25-1.78,2.02Z"/>
    <path d="M247.51,56.22h-24.67c.58-.29.91-.43,1.34-.91,1.06-1.15,1.3-2.3,1.3-3.79v-27.51c0-.14-.24-1.63-.72-2.35-.58-.72-1.01-1.3-1.78-1.78h20.59c.29,0,.53.05.82-.05.24-.05.38-.1.58-.24v8.45c-.34-.77-.67-1.15-1.34-1.63-.82-.58-2.11-.86-2.45-.86h-5.47v8.88h5.28c.53,0,.91.05,1.44-.1.24-.1.48-.19.72-.29v8.26c-.29-.82-.67-1.3-1.39-1.78-.82-.58-2.11-.67-2.45-.67h-3.65v10.42c1.58.62,4.75,1.1,7.15.86,4.37-.53,4.75-1.3,7.01-3.31l-2.3,8.4Z"/>
    <path d="M280,27.95c-.29-.58-.77-1.06-1.01-1.39-.58-.58-1.68-1.01-2.74-1.01h-2.74l-.82.34v25.06c0,1.78,0,2.06,1.01,3.55.53.82.96,1.25,1.82,1.78h-15.36c.43-.34.67-.58,1.06-.96.96-1.15,1.3-2.26,1.3-3.79l-.05-25.83-.48-.14h-3.89c-.48,0-1.63.29-2.59.77-.96.38-1.49.72-2.3,1.39l2.11-7.82h26.74l-2.06,8.06Z"/>
    <path d="M310.05,56.22h-24.67c.58-.29.91-.43,1.34-.91,1.06-1.15,1.3-2.3,1.3-3.79v-27.51c0-.14-.24-1.63-.72-2.35-.58-.72-1.01-1.3-1.78-1.78h20.59c.29,0,.53.05.82-.05.24-.05.38-.1.58-.24v8.45c-.34-.77-.67-1.15-1.34-1.63-.82-.58-2.11-.86-2.45-.86h-5.47v8.88h5.28c.53,0,.91.05,1.44-.1.24-.1.48-.19.72-.29v8.26c-.29-.82-.67-1.3-1.39-1.78-.82-.58-2.11-.67-2.45-.67h-3.65v10.42c1.58.62,4.75,1.1,7.15.86,4.37-.53,4.75-1.3,7.01-3.31l-2.3,8.4Z"/>
  </g>
</svg>